<svg width="38" height="25" viewBox="0 0 38 25" fill="none" xmlns="http://www.w3.org/2000/svg">
<path d="M18.75 5.20833C18.0599 5.21912 17.375 5.32874 16.7161 5.53385C17.0209 6.06987 17.1832 6.67507 17.1875 7.29167C17.1875 7.77044 17.0932 8.24453 16.9099 8.68687C16.7267 9.1292 16.4582 9.53111 16.1196 9.86966C15.7811 10.2082 15.3792 10.4768 14.9368 10.66C14.4945 10.8432 14.0204 10.9375 13.5416 10.9375C12.925 10.9332 12.3198 10.7709 11.7838 10.4661C11.3609 11.9328 11.4102 13.4954 11.9247 14.9324C12.4392 16.3695 13.3928 17.6083 14.6505 18.4733C15.9081 19.3383 17.4061 19.7857 18.9321 19.7521C20.4581 19.7185 21.9349 19.2056 23.1533 18.286C24.3716 17.3664 25.2697 16.0869 25.7204 14.6285C26.1711 13.1701 26.1516 11.6069 25.6645 10.1603C25.1774 8.71372 24.2475 7.45702 23.0065 6.56826C21.7655 5.6795 20.2764 5.20373 18.75 5.20833ZM37.2734 11.5495C33.7428 4.66081 26.7532 0 18.75 0C10.7467 0 3.75517 4.66406 0.226527 11.5501C0.0775958 11.8447 0 12.1702 0 12.5003C0 12.8304 0.0775958 13.1559 0.226527 13.4505C3.75713 20.3392 10.7467 25 18.75 25C26.7532 25 33.7448 20.3359 37.2734 13.4499C37.4223 13.1553 37.4999 12.8298 37.4999 12.4997C37.4999 12.1696 37.4223 11.8441 37.2734 11.5495ZM18.75 21.875C12.3274 21.875 6.43942 18.2943 3.25973 12.5C6.43942 6.70573 12.3268 3.125 18.75 3.125C25.1731 3.125 31.0605 6.70573 34.2402 12.5C31.0612 18.2943 25.1731 21.875 18.75 21.875Z" fill="white"/>
</svg>
