<svg width="55" height="30" viewBox="0 0 55 30" fill="none" xmlns="http://www.w3.org/2000/svg">
<g clip-path="url(#clip0_126_64)">
<path d="M26.6932 26.9249C24.5217 25.3361 22.2116 23.5889 20.6103 21.4547C19.9348 20.5525 19.3896 19.6227 18.2846 19.1232C16.9976 18.5414 15.4813 18.5506 14.1165 18.2954C12.7333 18.0371 11.4225 17.4956 10.0453 17.2305C9.43932 17.1129 8.77814 17.0565 8.21311 17.2865C7.75021 16.7474 6.92452 16.3463 6.3301 15.95C5.20998 15.2034 4.2043 14.1957 2.91293 13.7286C1.77732 13.3175 0.09457 13.3915 0.00198877 14.8183C-0.0635731 15.8304 1.07045 16.5779 1.79441 17.1809C2.98644 18.1755 4.05927 19.3596 5.1023 20.4901C5.58627 21.0148 6.06003 21.548 6.5236 22.0897C6.95274 22.5884 7.31233 23.2382 7.92305 23.5649C9.10952 24.1996 10.7339 24.3463 12.0201 24.7606C14.4073 25.5288 17.2523 26.4674 18.7817 28.5221C19.1901 29.0708 19.4921 29.5131 20.2181 29.5794C20.8141 29.6338 21.4101 29.6702 22.0061 29.6678C23.2343 29.663 24.4808 29.4851 25.529 28.908C26.059 28.6161 27.6349 27.6159 26.6928 26.9273" fill="#DC143C"/>
<path d="M28.3068 26.9249C30.4787 25.3361 32.7884 23.5889 34.3901 21.4547C35.0656 20.5525 35.6108 19.6227 36.7158 19.1232C38.0028 18.5414 39.5195 18.5506 40.8839 18.2954C42.2671 18.0371 43.5783 17.4956 44.9555 17.2305C45.5611 17.1129 46.2223 17.0565 46.7873 17.2865C47.2502 16.7474 48.0759 16.3463 48.6707 15.95C49.7904 15.2034 50.7961 14.1957 52.0879 13.7286C53.2239 13.3175 54.9066 13.3915 54.9988 14.8183C55.0644 15.8304 53.9304 16.5779 53.2068 17.1809C52.0148 18.1755 50.9419 19.3596 49.8985 20.4901C49.4151 21.0148 48.9414 21.548 48.4776 22.0897C48.0481 22.5884 47.6889 23.2382 47.0777 23.5649C45.8913 24.1996 44.2669 24.3463 42.9807 24.7606C40.5939 25.5288 37.7489 26.4674 36.2191 28.5221C35.8106 29.0708 35.5091 29.5131 34.7831 29.5794C34.1871 29.6338 33.5911 29.6702 32.9951 29.6678C31.7673 29.663 30.5204 29.4851 29.4722 28.908C28.9425 28.6161 27.3663 27.6159 28.3084 26.9273" fill="#DC143C"/>
<path d="M26.2394 7.15343C28.2021 7.15343 29.7932 5.55208 29.7932 3.57672C29.7932 1.60135 28.2021 0 26.2394 0C24.2767 0 22.6855 1.60135 22.6855 3.57672C22.6855 5.55208 24.2767 7.15343 26.2394 7.15343Z" fill="#DC143C"/>
<path d="M33.5247 8.38358C35.1008 8.38358 36.3785 7.09771 36.3785 5.51149C36.3785 3.92528 35.1008 2.6394 33.5247 2.6394C31.9487 2.6394 30.671 3.92528 30.671 5.51149C30.671 7.09771 31.9487 8.38358 33.5247 8.38358Z" fill="#DC143C"/>
<path d="M18.5524 8.50348C19.931 8.50348 21.0485 7.37874 21.0485 5.99131C21.0485 4.60387 19.931 3.47913 18.5524 3.47913C17.1738 3.47913 16.0563 4.60387 16.0563 5.99131C16.0563 7.37874 17.1738 8.50348 18.5524 8.50348Z" fill="#DC143C"/>
<path d="M29.0618 17.6756C28.8763 17.6759 28.6929 17.6365 28.5236 17.5602C28.3544 17.4838 28.2032 17.3721 28.0799 17.2326C27.9567 17.0931 27.8643 16.9288 27.8089 16.7507C27.7534 16.5725 27.7361 16.3846 27.7581 16.1992C28.0657 13.5823 28.9839 11.328 30.2566 9.86118C29.1504 8.52551 27.7883 7.7373 26.3154 7.7373C24.6422 7.7373 23.1124 8.75425 21.9374 10.4354C23.0444 11.7491 23.8415 13.7354 24.1117 16.0341C24.131 16.1998 24.1152 16.3677 24.0654 16.5269C24.0156 16.686 23.9328 16.8327 23.8226 16.9574C23.7125 17.082 23.5773 17.1818 23.426 17.2501C23.2748 17.3184 23.1109 17.3537 22.9451 17.3537H19.7961C19.8924 17.6448 20.0773 17.898 20.3245 18.0775C20.5718 18.2569 20.8689 18.3535 21.1737 18.3535H31.4578C31.7026 18.3537 31.9435 18.2914 32.1579 18.1725C32.3723 18.0536 32.5533 17.882 32.684 17.6737L29.0618 17.6756Z" fill="#DC143C"/>
<path d="M22.5417 17.1158C22.7007 17.1157 22.8578 17.0818 23.0028 17.0163C23.1479 16.9507 23.2774 16.855 23.383 16.7355C23.4887 16.6159 23.5679 16.4752 23.6156 16.3226C23.6634 16.17 23.6784 16.009 23.6599 15.8501C23.193 11.8771 21.0839 8.87781 18.5524 8.87781C16.0209 8.87781 13.9126 11.8771 13.4453 15.8501C13.4268 16.009 13.4418 16.17 13.4895 16.3226C13.5373 16.4752 13.6165 16.6159 13.7221 16.7355C13.8278 16.855 13.9573 16.9507 14.1023 17.0163C14.2473 17.0818 14.4045 17.1157 14.5635 17.1158H22.5417Z" fill="#DC143C"/>
<path d="M38.2396 8.77702C39.0898 8.77702 39.7789 8.08342 39.7789 7.22781C39.7789 6.3722 39.0898 5.67859 38.2396 5.67859C37.3895 5.67859 36.7003 6.3722 36.7003 7.22781C36.7003 8.08342 37.3895 8.77702 38.2396 8.77702Z" fill="#DC143C"/>
<path d="M40.8002 14.3165C40.9022 14.3165 41.0031 14.2948 41.0962 14.2527C41.1894 14.2106 41.2726 14.1492 41.3404 14.0724C41.4082 13.9956 41.459 13.9053 41.4896 13.8073C41.5202 13.7093 41.5298 13.6059 41.5178 13.5039C41.2182 10.9537 39.8644 9.02856 38.2397 9.02856C36.6149 9.02856 35.2596 10.9537 34.9616 13.5039C34.9496 13.6059 34.9591 13.7093 34.9897 13.8073C35.0203 13.9053 35.0712 13.9956 35.139 14.0724C35.2068 14.1492 35.29 14.2106 35.3831 14.2527C35.4762 14.2948 35.5771 14.3165 35.6792 14.3165H40.8002Z" fill="#DC143C"/>
<path d="M38.6099 14.5964H35.3354C35.2225 14.5967 35.1109 14.5729 35.0079 14.5266C34.9048 14.4803 34.8127 14.4126 34.7376 14.3278C34.6625 14.243 34.6061 14.1432 34.5722 14.0348C34.5382 13.9265 34.5275 13.8122 34.5407 13.6994C34.7298 12.0926 35.2976 10.7109 36.0836 9.82035C35.3207 9.14052 34.4493 8.75781 33.5239 8.75781C30.882 8.75781 28.6811 11.8878 28.1935 16.036C28.1742 16.2017 28.19 16.3697 28.2398 16.5288C28.2897 16.688 28.3724 16.8347 28.4826 16.9593C28.5928 17.084 28.7279 17.1837 28.8792 17.2521C29.0304 17.3204 29.1943 17.3557 29.3601 17.3557H37.6873C37.8531 17.3557 38.017 17.3204 38.1682 17.2521C38.3195 17.1837 38.4546 17.084 38.5648 16.9593C38.675 16.8347 38.7577 16.688 38.8076 16.5288C38.8574 16.3697 38.8732 16.2017 38.8539 16.036C38.7981 15.5521 38.7167 15.0715 38.6099 14.5964Z" fill="#DC143C"/>
</g>
<defs>
<clipPath id="clip0_126_64">
<rect width="55" height="29.6667" fill="white"/>
</clipPath>
</defs>
</svg>
