<svg width="204" height="30" viewBox="0 0 204 30" fill="none" xmlns="http://www.w3.org/2000/svg">
<g clip-path="url(#clip0_126_75)">
<path d="M26.6932 26.9249C24.5217 25.3361 22.2116 23.5889 20.6103 21.4547C19.9348 20.5525 19.3896 19.6227 18.2846 19.1232C16.9976 18.5414 15.4813 18.5506 14.1165 18.2954C12.7333 18.0371 11.4225 17.4956 10.0453 17.2305C9.43932 17.1129 8.77814 17.0565 8.21311 17.2865C7.75021 16.7474 6.92452 16.3463 6.3301 15.95C5.20998 15.2034 4.2043 14.1957 2.91293 13.7286C1.77732 13.3175 0.09457 13.3915 0.00198877 14.8183C-0.0635731 15.8304 1.07045 16.5779 1.79441 17.1809C2.98644 18.1755 4.05927 19.3596 5.1023 20.4901C5.58627 21.0148 6.06003 21.548 6.5236 22.0897C6.95274 22.5884 7.31233 23.2382 7.92305 23.5649C9.10952 24.1996 10.7339 24.3463 12.0201 24.7606C14.4073 25.5288 17.2523 26.4674 18.7817 28.5221C19.1901 29.0708 19.4921 29.5131 20.2181 29.5794C20.8141 29.6338 21.4101 29.6702 22.0061 29.6678C23.2343 29.663 24.4808 29.4851 25.529 28.908C26.059 28.6161 27.6349 27.6159 26.6928 26.9273" fill="#DC143C"/>
<path d="M28.3068 26.9249C30.4787 25.3361 32.7884 23.5889 34.3901 21.4547C35.0656 20.5525 35.6108 19.6227 36.7158 19.1232C38.0028 18.5414 39.5195 18.5506 40.8839 18.2954C42.2671 18.0371 43.5783 17.4956 44.9555 17.2305C45.5611 17.1129 46.2223 17.0565 46.7873 17.2865C47.2502 16.7474 48.0759 16.3463 48.6707 15.95C49.7904 15.2034 50.7961 14.1957 52.0879 13.7286C53.2239 13.3175 54.9066 13.3915 54.9988 14.8183C55.0644 15.8304 53.9304 16.5779 53.2068 17.1809C52.0148 18.1755 50.9419 19.3596 49.8985 20.4901C49.4151 21.0148 48.9414 21.548 48.4776 22.0897C48.0481 22.5884 47.6889 23.2382 47.0777 23.5649C45.8913 24.1996 44.2669 24.3463 42.9807 24.7606C40.5939 25.5288 37.7489 26.4674 36.2191 28.5221C35.8106 29.0708 35.5091 29.5131 34.7831 29.5794C34.1871 29.6338 33.5911 29.6702 32.9951 29.6678C31.7673 29.663 30.5204 29.4851 29.4722 28.908C28.9425 28.6161 27.3663 27.6159 28.3084 26.9273" fill="#DC143C"/>
<path d="M26.2394 7.15343C28.2021 7.15343 29.7932 5.55208 29.7932 3.57672C29.7932 1.60135 28.2021 0 26.2394 0C24.2767 0 22.6855 1.60135 22.6855 3.57672C22.6855 5.55208 24.2767 7.15343 26.2394 7.15343Z" fill="#DC143C"/>
<path d="M33.5247 8.38358C35.1008 8.38358 36.3785 7.09771 36.3785 5.51149C36.3785 3.92528 35.1008 2.6394 33.5247 2.6394C31.9487 2.6394 30.671 3.92528 30.671 5.51149C30.671 7.09771 31.9487 8.38358 33.5247 8.38358Z" fill="#DC143C"/>
<path d="M18.5524 8.50348C19.931 8.50348 21.0485 7.37874 21.0485 5.99131C21.0485 4.60387 19.931 3.47913 18.5524 3.47913C17.1738 3.47913 16.0563 4.60387 16.0563 5.99131C16.0563 7.37874 17.1738 8.50348 18.5524 8.50348Z" fill="#DC143C"/>
<path d="M29.0618 17.6756C28.8763 17.6759 28.6929 17.6365 28.5236 17.5602C28.3544 17.4838 28.2032 17.3721 28.0799 17.2326C27.9567 17.0931 27.8643 16.9288 27.8089 16.7507C27.7534 16.5725 27.7361 16.3846 27.7581 16.1992C28.0657 13.5823 28.9839 11.328 30.2566 9.86118C29.1504 8.52551 27.7883 7.7373 26.3154 7.7373C24.6422 7.7373 23.1124 8.75425 21.9374 10.4354C23.0444 11.7491 23.8415 13.7354 24.1117 16.0341C24.131 16.1998 24.1152 16.3677 24.0654 16.5269C24.0156 16.686 23.9328 16.8327 23.8226 16.9574C23.7125 17.082 23.5773 17.1818 23.426 17.2501C23.2748 17.3184 23.1109 17.3537 22.9451 17.3537H19.7961C19.8924 17.6448 20.0773 17.898 20.3245 18.0775C20.5718 18.2569 20.8689 18.3535 21.1737 18.3535H31.4578C31.7026 18.3537 31.9435 18.2914 32.1579 18.1725C32.3723 18.0536 32.5533 17.882 32.684 17.6737L29.0618 17.6756Z" fill="#DC143C"/>
<path d="M22.5417 17.1158C22.7007 17.1157 22.8578 17.0818 23.0028 17.0163C23.1479 16.9507 23.2774 16.855 23.383 16.7355C23.4887 16.6159 23.5679 16.4752 23.6156 16.3226C23.6634 16.17 23.6784 16.009 23.6599 15.8501C23.193 11.8771 21.0839 8.87781 18.5524 8.87781C16.0209 8.87781 13.9126 11.8771 13.4453 15.8501C13.4268 16.009 13.4418 16.17 13.4895 16.3226C13.5373 16.4752 13.6165 16.6159 13.7221 16.7355C13.8278 16.855 13.9573 16.9507 14.1023 17.0163C14.2473 17.0818 14.4045 17.1157 14.5635 17.1158H22.5417Z" fill="#DC143C"/>
<path d="M38.2396 8.77702C39.0898 8.77702 39.7789 8.08342 39.7789 7.22781C39.7789 6.3722 39.0898 5.67859 38.2396 5.67859C37.3895 5.67859 36.7003 6.3722 36.7003 7.22781C36.7003 8.08342 37.3895 8.77702 38.2396 8.77702Z" fill="#DC143C"/>
<path d="M40.8002 14.3165C40.9022 14.3165 41.0031 14.2948 41.0962 14.2527C41.1894 14.2106 41.2726 14.1492 41.3404 14.0724C41.4082 13.9956 41.459 13.9053 41.4896 13.8073C41.5202 13.7093 41.5298 13.6059 41.5178 13.5039C41.2182 10.9537 39.8644 9.02856 38.2397 9.02856C36.6149 9.02856 35.2596 10.9537 34.9616 13.5039C34.9496 13.6059 34.9591 13.7093 34.9897 13.8073C35.0203 13.9053 35.0712 13.9956 35.139 14.0724C35.2068 14.1492 35.29 14.2106 35.3831 14.2527C35.4762 14.2948 35.5771 14.3165 35.6792 14.3165H40.8002Z" fill="#DC143C"/>
<path d="M38.6099 14.5964H35.3354C35.2225 14.5967 35.1109 14.5729 35.0079 14.5266C34.9048 14.4803 34.8127 14.4126 34.7376 14.3278C34.6625 14.243 34.6061 14.1432 34.5722 14.0348C34.5382 13.9265 34.5275 13.8122 34.5407 13.6994C34.7298 12.0926 35.2976 10.7109 36.0836 9.82035C35.3207 9.14052 34.4493 8.75781 33.5239 8.75781C30.882 8.75781 28.6811 11.8878 28.1935 16.036C28.1742 16.2017 28.19 16.3697 28.2398 16.5288C28.2897 16.688 28.3724 16.8347 28.4826 16.9593C28.5928 17.084 28.7279 17.1837 28.8792 17.2521C29.0304 17.3204 29.1943 17.3557 29.3601 17.3557H37.6873C37.8531 17.3557 38.017 17.3204 38.1682 17.2521C38.3195 17.1837 38.4546 17.084 38.5648 16.9593C38.675 16.8347 38.7577 16.688 38.8076 16.5288C38.8574 16.3697 38.8732 16.2017 38.8539 16.036C38.7981 15.5521 38.7167 15.0715 38.6099 14.5964Z" fill="#DC143C"/>
</g>
<path d="M78.1906 6.34595V18.7506C78.3061 20.184 77.8487 21.6048 76.9187 22.7017C76.0765 23.5666 74.686 23.999 72.7472 23.999C71.8254 23.9935 70.9061 23.9055 70 23.7362V20.3446C70.6858 20.4688 71.3805 20.5369 72.0773 20.5481C72.4969 20.5697 72.9142 20.4727 73.2813 20.2683C73.5543 20.1094 73.7775 19.8774 73.9257 19.5985C74.0913 19.1605 74.1607 18.692 74.1292 18.2249V6.35443L78.1906 6.34595Z" fill="black"/>
<path d="M92.5453 23.736H88.8994C88.7663 23.0719 88.7066 22.3952 88.7213 21.718C88.2419 22.4819 87.5769 23.112 86.7882 23.5495C86.1039 23.8582 85.3597 24.0117 84.6091 23.9988C83.5491 24.0504 82.5083 23.7024 81.6924 23.0238C81.323 22.6943 81.0317 22.2867 80.8396 21.8306C80.6474 21.3745 80.5593 20.8813 80.5816 20.3868C80.5744 19.5966 80.7984 18.8215 81.226 18.1569C81.736 17.4171 82.4656 16.8565 83.3118 16.5544C85.0134 16.0419 86.7754 15.7568 88.5518 15.7065V14.9688C88.5799 14.7167 88.551 14.4614 88.4673 14.2219C88.3836 13.9823 88.2473 13.7647 88.0682 13.5848C87.8892 13.405 87.6722 13.2676 87.433 13.1829C87.1939 13.0981 86.9387 13.0681 86.6864 13.095C86.4151 13.0581 86.139 13.0785 85.876 13.1549C85.613 13.2313 85.3689 13.362 85.1596 13.5386C84.9502 13.7152 84.7802 13.9337 84.6606 14.1801C84.541 14.4264 84.4743 14.6951 84.465 14.9688L80.9632 14.6381C81.0261 13.9884 81.2487 13.3644 81.6111 12.8215C81.9735 12.2786 82.4646 11.8337 83.0405 11.5264C84.2506 10.9023 85.5964 10.5877 86.9578 10.6107C87.7927 10.6055 88.6249 10.7081 89.4336 10.9159C90.1024 11.0662 90.7231 11.3809 91.2396 11.8316C91.6244 12.188 91.9156 12.6335 92.0875 13.1289C92.2763 13.9054 92.3534 14.7048 92.3164 15.503V21.3365C92.2836 22.143 92.3606 22.9502 92.5453 23.736ZM88.5179 17.5719C85.8724 17.8347 84.5413 18.6317 84.5413 19.9799C84.5313 20.4066 84.6827 20.8214 84.9652 21.1415C85.1141 21.3088 85.2991 21.44 85.5063 21.5252C85.7134 21.6105 85.9372 21.6474 86.1608 21.6332C86.4902 21.6352 86.8154 21.5595 87.1101 21.4122C87.4047 21.2648 87.6605 21.0501 87.8565 20.7853C88.3179 20.2029 88.5581 19.4761 88.5348 18.7335L88.5179 17.5719Z" fill="black"/>
<path d="M103.949 15.2318L108.13 23.7107H103.941L101.262 17.8772L99.0232 20.4209V23.6853H95.4451V6.34595H99.0232V16.7919L99.5828 16.0882C99.8202 15.766 100.024 15.5116 100.185 15.3166L103.932 10.8906H107.638L103.949 15.2318Z" fill="black"/>
<path d="M134.425 10.182L130.533 23.0445H127.226L125.191 14.7691L123.156 23.0445H119.994L116 10.182H119.96L122.062 18.0419L124.029 10.182H127.421L129.303 18.0928L131.491 10.182H134.425Z" fill="black"/>
<path d="M153.672 5.66284V23.0446H150.17V21.0351C149.852 21.711 149.351 22.2837 148.722 22.6871C148.094 23.0906 147.364 23.3086 146.617 23.3159C145.951 23.3405 145.289 23.1936 144.695 22.8893C144.101 22.5849 143.595 22.1334 143.226 21.5777C142.327 20.1352 141.898 18.4498 141.996 16.7532C141.896 14.9949 142.324 13.2468 143.226 11.7337C143.612 11.1475 144.144 10.6719 144.77 10.3537C145.396 10.0356 146.094 9.88585 146.795 9.91926C147.417 9.89368 148.034 10.0284 148.588 10.3106C149.142 10.5928 149.614 11.0128 149.958 11.5302V5.66284H153.672ZM149.992 15.5747C149.992 13.5482 149.373 12.5392 148.152 12.5392C146.688 12.5392 145.956 13.9524 145.956 16.7787C145.956 19.3223 146.634 20.5857 148.008 20.5857C148.276 20.5817 148.54 20.5179 148.781 20.3992C149.021 20.2804 149.232 20.1095 149.398 19.8989C149.825 19.3384 150.036 18.6432 149.992 17.9403V15.5747Z" fill="black"/>
<path d="M162.134 9.91937C162.994 9.8731 163.854 10.0222 164.648 10.3556C165.442 10.6889 166.151 11.1978 166.721 11.8441C167.843 13.189 168.429 14.9011 168.366 16.6516C168.427 18.3952 167.82 20.0965 166.67 21.4082C166.097 22.0402 165.392 22.5387 164.605 22.8683C163.819 23.198 162.969 23.3508 162.117 23.316C161.291 23.3501 160.467 23.1988 159.707 22.873C158.947 22.5473 158.27 22.0555 157.725 21.4337C156.575 20.0882 155.97 18.3612 156.029 16.5922C155.996 15.3878 156.252 14.1929 156.775 13.1074C157.25 12.176 157.953 11.3798 158.818 10.7927C159.809 10.1702 160.965 9.86543 162.134 9.91937ZM162.235 12.4037C161.913 12.3866 161.592 12.4563 161.306 12.6054C161.019 12.7545 160.778 12.9776 160.607 13.2516C160.151 14.2937 159.965 15.4337 160.065 16.5668C159.991 17.6827 160.168 18.8009 160.582 19.8397C160.721 20.1507 160.951 20.4125 161.242 20.591C161.532 20.7695 161.87 20.8563 162.21 20.8402C162.52 20.8419 162.826 20.7651 163.099 20.6169C163.372 20.4686 163.603 20.2537 163.77 19.9923C164.264 18.9914 164.473 17.8735 164.372 16.7618C164.463 15.5892 164.283 14.4115 163.846 13.3194C163.691 13.031 163.457 12.7922 163.172 12.6303C162.887 12.4684 162.563 12.3898 162.235 12.4037Z" fill="black"/>
<path d="M189.122 23.0446H185.332V15.9308C185.351 15.2765 185.319 14.6218 185.239 13.9722C185.181 13.6742 185.015 13.4082 184.772 13.226C184.474 13.0066 184.108 12.8985 183.738 12.9208C183.278 12.9373 182.834 13.0941 182.466 13.3702C182.034 13.6669 181.813 14.5148 181.813 15.9138V23.0276H178.023V15.9138C178.054 15.2463 178.005 14.5775 177.879 13.9213C177.79 13.6242 177.605 13.3649 177.353 13.1836C177.06 12.9897 176.713 12.8919 176.361 12.9038C176.087 12.8848 175.811 12.9309 175.558 13.0385C175.304 13.146 175.08 13.312 174.903 13.5228C174.514 14.2562 174.349 15.0875 174.428 15.9138V23.0276H170.748V10.1821H174.309V12.1492C174.59 11.4336 175.096 10.8288 175.75 10.4265C176.405 10.0241 177.173 9.84606 177.938 9.91929C178.688 9.88674 179.43 10.0825 180.066 10.4807C180.701 10.8789 181.201 11.4607 181.5 12.1492C181.817 11.439 182.345 10.8438 183.013 10.4447C183.68 10.0457 184.455 9.8622 185.23 9.91929C185.992 9.89704 186.746 10.0754 187.418 10.4365C187.988 10.7425 188.448 11.22 188.732 11.8016C189.05 12.7305 189.183 13.7129 189.122 14.6929V23.0446Z" fill="black"/>
<path d="M203.256 10.182V23.0445H199.737V20.8569C199.462 21.6249 198.941 22.2812 198.257 22.7253C197.572 23.1694 196.761 23.3768 195.947 23.3158C195.166 23.3659 194.388 23.1765 193.717 22.7731C193.197 22.4129 192.805 21.8961 192.598 21.2978C192.344 20.4197 192.232 19.5065 192.268 18.593V10.182H195.947V18.593C195.947 19.7236 196.422 20.2888 197.372 20.2888C197.828 20.2998 198.274 20.1531 198.635 19.8734C198.941 19.665 199.177 19.3696 199.314 19.0255C199.43 18.494 199.479 17.9498 199.458 17.406V10.182H203.256Z" fill="black"/>
<defs>
<clipPath id="clip0_126_75">
<rect width="55" height="29.6667" fill="white"/>
</clipPath>
</defs>
</svg>
